<svg width="36" height="36" viewBox="0 0 36 36" fill="none" xmlns="http://www.w3.org/2000/svg">
<path d="M25.3438 14.75C25.9688 14.2812 26.5312 13.7188 26.9688 13.0625C26.4062 13.3125 25.75 13.5 25.0938 13.5625C25.7812 13.1562 26.2812 12.5312 26.5312 11.75C25.9062 12.125 25.1875 12.4062 24.4688 12.5625C23.8438 11.9062 23 11.5312 22.0625 11.5312C20.25 11.5312 18.7812 13 18.7812 14.8125C18.7812 15.0625 18.8125 15.3125 18.875 15.5625C16.1562 15.4062 13.7188 14.0938 12.0938 12.125C11.8125 12.5938 11.6562 13.1562 11.6562 13.7812C11.6562 14.9062 12.2188 15.9062 13.125 16.5C12.5938 16.4688 12.0625 16.3438 11.625 16.0938V16.125C11.625 17.7188 12.75 19.0312 14.25 19.3438C14 19.4062 13.6875 19.4688 13.4062 19.4688C13.1875 19.4688 13 19.4375 12.7812 19.4062C13.1875 20.7188 14.4062 21.6562 15.8438 21.6875C14.7188 22.5625 13.3125 23.0938 11.7812 23.0938C11.5 23.0938 11.25 23.0625 11 23.0312C12.4375 23.9688 14.1562 24.5 16.0312 24.5C22.0625 24.5 25.3438 19.5312 25.3438 15.1875C25.3438 15.0312 25.3438 14.9062 25.3438 14.75Z" fill="url(#paint0_linear)"/>
<rect x="0.5" y="0.5" width="35" height="35" rx="17.5" stroke="url(#paint1_linear)"/>
<defs>
<linearGradient id="paint0_linear" x1="11" y1="10" x2="30.3132" y2="18.1053" gradientUnits="userSpaceOnUse">
<stop stop-color="#C381DB"/>
<stop offset="1" stop-color="#4E92F9"/>
</linearGradient>
<linearGradient id="paint1_linear" x1="0" y1="0" x2="43.4547" y2="18.237" gradientUnits="userSpaceOnUse">
<stop stop-color="#C381DB"/>
<stop offset="1" stop-color="#4E92F9"/>
</linearGradient>
</defs>
</svg>
